ModelForces
version=1
nRows=4
nColumns=94
inDegrees=yes

This file contains the forces exerted on a model during a simulation.

A force is a generalized force, meaning that it can be either a force (N) or a torque (Nm).

Units are S.I. units (second, meters, Newtons, ...)
Angles are in degrees.

endheader 
time	addbrev_l	addlong_l	addmagDist_l	addmagIsch_l	addmagMid_l	addmagProx_l	bflh_l	bfsh_l	edl_l	ehl_l	fdl_l	fhl_l	gaslat_l	gasmed_l	glmax1_l	glmax2_l	glmax3_l	glmed1_l	glmed2_l	glmed3_l	glmin1_l	glmin2_l	glmin3_l	grac_l	iliacus_l	perbrev_l	perlong_l	piri_l	psoas_l	recfem_l	sart_l	semimem_l	semiten_l	soleus_l	tfl_l	tibant_l	tibpost_l	vasint_l	vaslat_l	vasmed_l	addbrev_r	addlong_r	addmagDist_r	addmagIsch_r	addmagMid_r	addmagProx_r	bflh_r	bfsh_r	edl_r	ehl_r	fdl_r	fhl_r	gaslat_r	gasmed_r	glmax1_r	glmax2_r	glmax3_r	glmed1_r	glmed2_r	glmed3_r	glmin1_r	glmin2_r	glmin3_r	grac_r	iliacus_r	perbrev_r	perlong_r	piri_r	psoas_r	recfem_r	sart_r	semimem_r	semiten_r	soleus_r	tfl_r	tibant_r	tibpost_r	vasint_r	vaslat_r	vasmed_r	lumbar_extension	lumbar_bending	lumbar_rotation	arm_flex_l	arm_add_l	arm_rot_l	arm_flex_r	arm_add_r	arm_rot_r	elbow_flex_l	elbow_flex_r	pro_sup_l	pro_sup_r	
          2.40000000	         35.03139242	          0.01864598	         55.56134260	         23.45253339	        136.91213011	         54.75978297	         20.92023927	          1.23310332	        319.64478145	         39.78138381	          1.52600893	          4.46728098	          0.00015019	          0.00000285	         15.47184302	         28.04886982	        251.21662912	          9.07092829	          7.82914412	          9.74979915	          1.77070044	          1.60031616	          0.77430206	          0.87951944	          0.02241106	        111.42689753	        307.91786471	          3.52155968	          2.30309834	          0.02692766	          0.93140483	          7.87837803	         14.41395643	          0.00026326	          0.01069516	        452.72644048	         18.29191189	         71.43093663	        435.15119988	         94.05050778	          2.56527396	          1.36672026	          6.86450720	         12.78696391	          1.81668545	          1.13913177	         21.09078681	          4.01410627	         39.11268550	          0.80619388	          4.54175296	          0.04054481	          0.05880435	          0.01793479	         97.49360357	        311.61974291	         18.70046532	        354.20980579	        136.06734843	         15.48476263	         32.00455754	         37.63260993	         28.14026219	          1.69363237	          7.43625783	          6.63077112	         19.24502416	          0.00943702	         10.36775665	          0.01477749	          2.15107403	        591.11241362	          6.34247369	        295.30988145	         59.08088694	          2.00186258	        124.88584582	        242.82009355	        241.60655099	        482.30594294	         -2.78641903	        -74.55702389	        -61.17717716	       -150.48276908	        150.43964428	          2.72281351	       -150.06827093	        -78.03683143	        154.54371490	          9.98661957	         98.28225193	         -1.84287479	          1.96130644	
          2.41000000	         62.56089881	         98.80863237	         44.29046337	         18.91262617	        105.95258675	         44.77354127	         20.21393020	          9.71137859	        305.25398361	         32.72927667	          8.06665401	          8.02123067	         10.19871159	         21.17295511	         12.63019601	         22.74456655	        203.76153995	         10.96314712	          8.71867006	         10.50962123	          2.90235078	          2.96647298	          2.86129881	         19.54058386	          6.58130333	         22.49578396	         57.91805758	         10.82009813	          1.74882820	          0.01125595	          4.81931379	          7.33347294	         11.83439939	         64.53433664	          0.01659938	        188.10732482	          0.14032709	         53.74677992	        331.76327118	         71.38524953	          5.77449288	          6.34031326	          4.60905976	          7.03343891	          1.99782452	          2.18617303	          9.88355335	          5.29880366	         15.00915318	          2.39653626	          0.07922627	         53.27260117	        129.41693683	        415.08365163	         64.71726369	        205.33169897	         11.58392907	        253.79000873	         97.06863221	         28.93037713	         24.87423741	         27.52141666	         17.18824772	          2.38325220	         10.88450608	          5.82991081	         14.04020154	        198.92962222	         14.55508429	        362.45844375	          3.92442799	        117.09793086	          4.58780049	       1395.91167374	         51.38846557	         10.48213012	        205.76437446	        176.72590175	       1549.55745039	        320.28323265	        -12.12259437	        -50.18658891	        -42.15560199	        -75.44161012	         75.60929597	          9.44248519	       -116.53037137	        -21.14396886	         95.45690010	          7.49728697	         36.85637788	          0.75232916	          1.25175678	
          2.42000000	         52.82319252	         90.40881257	         35.87375910	         15.46803210	         83.60119241	         36.67460951	         18.54855014	          9.46526872	        127.08715471	          0.09176522	         19.32574904	         23.88845040	         36.24733681	         97.36971051	         10.55456714	         18.95754456	        167.48474530	         11.66179999	          9.08580649	         10.87572608	          4.37715910	          5.98546313	          7.87564822	         18.26772888	         63.06431978	         61.23627651	         99.11408798	          0.04591751	        252.52474983	        194.46365786	         28.55431486	          7.84071402	         10.00770771	        154.59574240	         34.88527519	        239.94332964	        163.46292532	         41.27081344	        250.79631604	         55.40232586	          6.99072094	          8.77083851	          3.26088239	          4.20205877	          2.09650243	          2.69566986	          5.52616263	          5.71040350	         36.25206667	          1.31487923	         23.63598373	         70.72473812	        126.58021068	        410.03113904	         74.50440751	        143.73332902	          7.86330160	        188.74979638	         49.22861584	        152.53326338	         19.31398222	         20.96032693	          8.62672865	          2.73714652	         11.97188363	          4.92930020	         12.25480449	        201.15134656	         17.27585028	        592.84078784	          6.96234456	        188.39408414	          3.47843380	       1827.61677700	         57.91009112	          2.26014334	        238.04826181	        164.77842476	       1443.88582749	        385.69534529	         -3.06986462	        -38.53836897	        -14.37101146	        -19.19690851	         19.53711582	         10.15466275	        -49.97498785	         21.63679131	         33.82077086	          2.52552249	         -6.77873751	          1.61015474	          0.67815825	
          2.43000000	         44.25231687	         74.35548036	         30.58821515	         13.33347101	         70.84411372	         30.92166909	         17.84353298	          8.60570009	         81.09529708	         26.15722591	         16.04379791	         20.64583065	         43.89720839	        127.02504665	         10.54018148	         16.43082103	        142.99655629	         11.49592612	          9.14418315	         11.08524069	          3.73515333	          5.13927742	          7.18682699	         17.03045893	         54.41542241	         17.01340493	         98.75872694	        149.50311549	        218.93753243	        203.27204256	         24.45492642	         10.28168955	          8.99960725	        156.01425608	         16.17109616	        200.94857601	        127.44029607	         33.45489592	        240.16251117	         42.88819563	          7.43672800	         10.18272101	          3.08065891	          2.96503139	          2.20018406	          3.06641756	          3.89428768	          5.95841392	         18.79689342	          3.45322935	         16.74470429	         70.88247738	        118.95638491	        393.40219594	         61.88598254	        112.39932638	          6.02295632	        130.68069747	        125.18802528	        123.55464849	         15.25733506	         17.71046771	         27.70080061	          2.94345906	         11.14633088	          4.08253416	         10.03823854	        169.56229615	         15.30525202	        771.46434795	          5.95207516	         83.70948846	          2.90923269	       2123.57089485	         65.46762671	         57.32484534	        269.30563267	         33.52433401	       1465.74453477	        360.65388462	          2.37407997	        -47.21559988	         -2.34164795	         22.94786714	        -22.50542573	         -5.15279908	          0.00051218	          7.93364067	         -4.73424320	         -5.42134264	          3.68028299	         -0.84425289	         -0.20111295	
